<?xml version="1.0" encoding="UTF-8" standalone="no"?>
<svg width="231px" height="28px" viewBox="0 0 231 28" version="1.1" xmlns="http://www.w3.org/2000/svg" xmlns:xlink="http://www.w3.org/1999/xlink">
    <!-- Generator: Sketch 46.2 (44496) - http://www.bohemiancoding.com/sketch -->
    <title>Group</title>
    <desc>Created with Sketch.</desc>
    <defs></defs>
    <g id="Finals" stroke="none" stroke-width="1" fill="none" fill-rule="evenodd">
        <g id="Artboard-2" transform="translate(-143.000000, -79.000000)">
            <g id="Group" transform="translate(143.000000, 79.000000)">
                <path d="M112.450579,10.3647211 L104.385627,10.3647211 L104.385627,26.3223412 L112.442472,26.3223412 C114.667985,26.3223412 116.577305,25.552127 118.154217,24.0299408 C119.731129,22.5016738 120.517559,20.6268106 120.517559,18.4012972 C120.517559,16.1798376 119.731129,14.2867324 118.154217,12.7219816 C116.577305,11.1572309 114.676093,10.3647211 112.450579,10.3647211 M116.173956,22.0273841 C115.140248,23.0246087 113.901825,23.5211941 112.450579,23.5211941 L107.174613,23.5211941 L107.174613,13.1273575 L112.450579,13.1273575 C113.901825,13.1273575 115.140248,13.6401579 116.173956,14.6596781 C117.211719,15.6812253 117.726546,16.9155947 117.726546,18.3627865 C117.726546,19.814032 117.211719,21.0342133 116.173956,22.0273841" id="Fill-4" fill="#AFAFAF"></path>
                <path d="M167.026734,15.8930342 C165.662645,15.8930342 164.560022,16.9976833 164.560022,18.361773 C164.560022,19.7238359 165.662645,20.8305119 167.026734,20.8305119 C168.390824,20.8305119 169.495473,19.7238359 169.495473,18.361773 C169.495473,16.9976833 168.390824,15.8930342 167.026734,15.8930342" id="Fill-6" fill="#AFAFAF"></path>
                <polygon id="Fill-10" fill="#AFAFAF" points="124.443624 26.3215304 140.460023 26.3215304 140.460023 23.508222 127.236663 23.508222 127.236663 19.7240386 137.664957 19.7240386 137.664957 16.9350528 127.236663 16.9350528 127.236663 13.1528961 140.460023 13.1528961 140.460023 10.3598566 124.443624 10.3598566"></polygon>
                <path d="M181.866125,9.62105911 C177.05026,9.62105911 173.146491,13.5248285 173.146491,18.3427204 C173.146491,23.1565585 177.05026,27.0603279 181.866125,27.0603279 C186.679963,27.0603279 190.583733,23.1565585 190.583733,18.3427204 C190.583733,13.5248285 186.679963,9.62105911 181.866125,9.62105911 M181.866125,24.2652614 C178.594742,24.2652614 175.941557,21.6100497 175.941557,18.3427204 C175.941557,15.0693104 178.594742,12.4181524 181.866125,12.4181524 C185.137508,12.4181524 187.788666,15.0693104 187.788666,18.3427204 C187.788666,21.6100497 185.137508,24.2652614 181.866125,24.2652614" id="Fill-13" fill="#AFAFAF"></path>
                <path d="M209.954415,15.3015908 C209.954415,13.9354742 209.392969,12.7902874 208.584244,11.9491326 C207.607289,10.935693 206.269548,10.3600593 204.469679,10.3600593 L194.319068,10.3600593 L194.319068,26.3217331 L197.120215,26.3217331 L197.120215,20.4052727 L204.017685,20.4052727 L207.576885,26.3217331 L210.840161,26.3217331 L207.074219,19.9411173 C208.675454,19.1668495 209.954415,17.4703516 209.954415,15.3015908 M204.648045,17.6061525 L197.120215,17.6061525 L197.120215,13.1510719 L204.487921,13.1510719 C205.460823,13.1510719 206.02835,13.3821362 206.441833,13.7773776 C206.853289,14.1685653 207.130972,14.7219033 207.130972,15.3664509 C207.130972,15.9927566 206.8918,16.5359602 206.506693,16.9312017 C206.091183,17.3527926 205.485146,17.6061525 204.648045,17.6061525" id="Fill-15" fill="#AFAFAF"></path>
                <path d="M230.419814,17.2757712 L222.016373,17.2757712 L222.016373,19.9512517 L227.452463,19.9512517 C226.712652,22.5213346 224.294585,24.3475527 221.507626,24.22594 C218.23827,24.0860853 215.700617,21.3193952 215.844526,18.0520659 C215.986407,14.7827097 218.75107,12.2491107 222.0184,12.3889654 C223.652064,12.4599061 225.376939,13.3091685 226.313357,14.5151617 L228.680752,13.0031098 C227.162619,11.0005531 224.72023,9.70740416 222.140012,9.5959258 C217.328201,9.38918412 213.260255,13.1186419 213.049459,17.93248 C212.842718,22.7422644 216.574202,26.810211 221.386013,27.0189795 C226.195798,27.229775 230.263744,23.4962635 230.472513,18.6864791 C230.494809,18.2081356 230.47454,17.7358727 230.419814,17.2757712" id="Fill-17" fill="#AFAFAF"></path>
                <path d="M11.849267,26.2688315 L11.849267,26.2931541 L11.849267,26.2688315 L11.849267,26.2688315 Z M11.849267,26.244509 L11.849267,26.2627509 L11.849267,26.244509 L11.849267,26.244509 Z M11.849267,26.1958639 L11.849267,26.2424821 L11.849267,26.1958639 L11.849267,26.1958639 Z M11.8512939,26.1715413 C11.8512939,26.1796489 11.8512939,26.1857295 11.849267,26.193837 C11.8512939,26.1857295 11.8512939,26.1796489 11.8512939,26.1715413 L11.8512939,26.1715413 Z M11.8512939,26.1472188 L11.8512939,26.1674876 L11.8512939,26.1472188 L11.8512939,26.1472188 Z M11.8512939,26.1228962 L11.8512939,26.143165 L11.8512939,26.1228962 L11.8512939,26.1228962 Z M11.8533208,26.0985737 C11.8533208,26.1046543 11.8512939,26.110735 11.8512939,26.1168156 C11.8512939,26.110735 11.8533208,26.1046543 11.8533208,26.0985737 L11.8533208,26.0985737 Z M11.8533208,26.0742511 L11.8533208,26.092493 L11.8533208,26.0742511 L11.8533208,26.0742511 Z M11.8533208,26.0499286 L11.8533208,26.0681705 L11.8533208,26.0499286 L11.8533208,26.0499286 Z M11.8553477,26.0276329 C11.8553477,26.0316867 11.8553477,26.0377673 11.8533208,26.0438479 C11.8553477,26.0377673 11.8553477,26.0316867 11.8553477,26.0276329 L11.8553477,26.0276329 Z M11.8553477,26.0033104 L11.8553477,26.0195254 L11.8553477,26.0033104 L11.8553477,26.0033104 Z M11.8573746,25.9789878 C11.8553477,25.9830416 11.8553477,25.9891222 11.8553477,25.993176 C11.8553477,25.9891222 11.8553477,25.9830416 11.8573746,25.9789878 L11.8573746,25.9789878 Z M11.8573746,25.9546653 L11.8573746,25.9688534 L11.8573746,25.9546653 L11.8573746,25.9546653 Z M11.8573746,25.9303427 L11.8573746,25.9445309 L11.8573746,25.9303427 L11.8573746,25.9303427 Z M11.8594014,25.9060202 L11.8594014,25.9202083 L11.8594014,25.9060202 L11.8594014,25.9060202 Z M11.8594014,25.8837245 L11.8594014,25.8958858 L11.8594014,25.8837245 L11.8594014,25.8837245 Z M11.8614283,25.8594019 L11.8614283,25.8735901 L11.8614283,25.8594019 L11.8614283,25.8594019 Z M11.8614283,25.8350794 L11.8614283,25.8472407 L11.8614283,25.8350794 L11.8614283,25.8350794 Z M11.8634552,25.8127837 L11.8634552,25.8229181 L11.8634552,25.8127837 L11.8634552,25.8127837 Z M11.8634552,25.7884612 L11.8634552,25.7985956 L11.8634552,25.7884612 L11.8634552,25.7884612 Z M11.8654821,25.7641386 L11.8654821,25.774273 L11.8654821,25.7641386 L11.8654821,25.7641386 Z M11.867509,25.7418429 C11.867509,25.7438698 11.867509,25.7458967 11.8654821,25.7479236 C11.867509,25.7458967 11.867509,25.7438698 11.867509,25.7418429 L11.867509,25.7418429 Z M11.867509,25.7175204 L11.867509,25.723601 L11.867509,25.7175204 L11.867509,25.7175204 Z M11.8695358,25.6952247 L11.8695358,25.6992785 L11.8695358,25.6952247 L11.8695358,25.6952247 Z M11.8695358,25.6709022 L11.8695358,25.6749559 L11.8695358,25.6709022 L11.8695358,25.6709022 Z M11.8715627,25.6486065 L11.8715627,25.6506334 L11.8715627,25.6486065 Z M27.3184092,0.217352989 C31.0458401,0.241675539 34.588825,1.05242723 37.7953479,2.48340395 C37.7994016,2.48137707 37.8014285,2.48137707 37.8054823,2.47935019 C34.5949056,1.04837347 31.047867,0.241675539 27.3184092,0.217352989 L27.3184092,0.217352989 Z M27.2758447,0.217352989 L27.3143555,0.217352989 L27.2758447,0.217352989 L27.2758447,0.217352989 Z M27.2332803,0.217352989 L27.2697641,0.217352989 L27.2332803,0.217352989 L27.2332803,0.217352989 Z M27.1886889,0.21532611 L27.2251728,0.21532611 L27.1886889,0.21532611 L27.1886889,0.21532611 Z M27.138017,0.21532611 C12.7046101,0.21532611 0.95884502,11.8921773 0.835205388,26.2931541 C0.95884502,11.8921773 12.7046101,0.21532611 27.138017,0.21532611 L27.1826083,0.21532611 L27.138017,0.21532611 L27.138017,0.21532611 Z" id="Fill-21" fill="#67C7C5"></path>
                <path d="M53.4310995,26.2430902 L53.4310995,26.2552514 L53.4310995,26.2430902 M53.4310995,26.2025526 L53.4310995,26.2167407 L53.4310995,26.2025526 M42.4170379,26.1741763 C42.4190647,26.2147139 42.4190647,26.2532246 42.4190647,26.2937622 C42.4190647,26.2532246 42.4190647,26.2147139 42.4170379,26.1741763 M53.4310995,26.1640419 L53.4310995,26.1741763 L53.4310995,26.1640419 M42.4170379,26.1498537 L42.4170379,26.1701225 L42.4170379,26.1498537 M42.4170379,26.1275581 L42.4170379,26.1458 L42.4170379,26.1275581 M53.4290726,26.1153968 L53.4290726,26.1275581 L53.4290726,26.1153968 M42.415011,26.1032355 L42.415011,26.1214774 L42.415011,26.1032355 M42.415011,26.0809398 L42.415011,26.0971549 L42.415011,26.0809398 M53.4290726,26.0748592 L53.4290726,26.0910742 L53.4290726,26.0748592 M42.415011,26.0586442 L42.415011,26.0708054 L42.415011,26.0586442 M42.4129841,26.0343216 L42.4129841,26.0464829 L42.4129841,26.0343216 M53.4290726,26.0221603 L53.4290726,26.0545904 L53.4290726,26.0221603 M42.4129841,26.0120259 L42.4129841,26.0201335 L42.4129841,26.0120259 M42.4109572,25.9897303 C42.4129841,25.9917572 42.4129841,25.993784 42.4129841,25.9958109 C42.4129841,25.993784 42.4129841,25.9917572 42.4109572,25.9897303 M53.4270458,25.9795959 L53.4270458,26.0039184 L53.4270458,25.9795959 M42.4109572,25.9674346 L42.4109572,25.9694615 L42.4109572,25.9674346 M53.4270458,25.9431121 L53.4270458,25.9674346 L53.4270458,25.9431121 M48.7267129,11.5259202 C51.5846126,15.6344044 53.3074599,20.590124 53.4270458,25.9350045 C53.3074599,20.590124 51.5886663,15.6344044 48.7307666,11.5279471 C48.7287397,11.5279471 48.7287397,11.5279471 48.7267129,11.5259202" id="Fill-26" fill="#67C7C5"></path>
                <path d="M27.1384223,0.216339549 C12.7050154,0.216339549 0.959250396,11.8931907 0.833583884,26.2921407 L11.8496724,26.2921407 L11.8496724,26.269845 L11.8496724,26.2617375 L11.8496724,26.2434956 L11.8496724,26.2414687 L11.8496724,26.1948504 L11.8496724,26.1928236 C11.8516993,26.1867429 11.8516993,26.1786354 11.8516993,26.1725548 L11.8516993,26.1664741 L11.8516993,26.1482322 L11.8516993,26.1421516 L11.8516993,26.1239097 L11.8516993,26.117829 L11.8516993,26.0995871 L11.8516993,26.0935065 C11.8537262,26.0874259 11.8537262,26.0813452 11.8537262,26.0752646 L11.8537262,26.0691839 L11.8537262,26.050942 L11.8537262,26.0428345 L11.8537262,26.0266195 C11.8537262,26.0245926 11.8557531,26.0205388 11.8557531,26.018512 L11.8557531,26.0022969 L11.8557531,25.9941894 L11.8557531,25.9779744 L11.8557531,25.9698669 C11.8577799,25.9637862 11.8577799,25.9597325 11.8577799,25.9556787 L11.8577799,25.9435174 L11.8577799,25.9313562 L11.8577799,25.9212218 C11.8577799,25.917168 11.8598068,25.9110874 11.8598068,25.9070336 L11.8598068,25.8968992 L11.8598068,25.882711 L11.8598068,25.8725767 C11.8598068,25.8685229 11.8618337,25.8644691 11.8618337,25.8583885 L11.8618337,25.8482541 L11.8618337,25.8360928 L11.8618337,25.8239316 C11.8618337,25.8198778 11.8638606,25.815824 11.8638606,25.8117703 L11.8638606,25.7975821 L11.8638606,25.7894746 C11.8638606,25.783394 11.8638606,25.7793402 11.8658875,25.7732596 L11.8658875,25.7651521 L11.8658875,25.748937 L11.8658875,25.7428564 C11.8679143,25.7367757 11.8679143,25.7306951 11.8679143,25.7246145 L11.8679143,25.7185338 L11.8679143,25.698265 C11.8699412,25.698265 11.8699412,25.6962382 11.8699412,25.6962382 L11.8699412,25.6759694 L11.8699412,25.6719156 C11.8699412,25.6638081 11.8719681,25.6577275 11.8719681,25.6496199 L11.8719681,25.6496199 C12.3158546,17.7731673 18.7471424,11.4715998 26.6762939,11.2364818 C29.4977097,7.39351885 33.3386459,4.34103875 37.7957533,2.48441739 C34.5872035,1.05344066 31.0442186,0.242688979 27.3188146,0.216339549 L27.3147608,0.216339549 L27.2762501,0.216339549 L27.2701695,0.216339549 L27.2336857,0.216339549 L27.2255781,0.216339549 L27.1890943,0.216339549 L27.1830137,0.216339549 L27.1384223,0.216339549" id="Fill-23" fill="#D7D7D7"></path>
                <path d="M32.6051183,26.2927487 C32.8706394,18.0838879 39.607986,11.4843692 47.87968,11.4843692 C56.1452935,11.4843692 62.8927744,18.0838879 63.150188,26.2927487 L74.1703303,26.2927487 C73.9108898,12.0113578 62.2198505,0.474361273 47.87968,0.474361273 C33.5334289,0.474361273 21.852524,12.0113578 21.5870029,26.2927487 L32.6051183,26.2927487 Z" id="Fill-19" fill="#D7D7D7"></path>
                <path d="M37.8058876,2.4791475 C37.8018339,2.48117438 37.799807,2.48117438 37.7957533,2.48320126 C33.3386459,4.3418495 29.4977097,7.39230272 26.6762939,11.2352657 C26.8303367,11.231212 26.9843795,11.2291851 27.1384223,11.2291851 C31.2063689,11.2291851 34.9074504,12.8263659 37.6477911,15.4288788 C40.3577286,12.9783818 43.9453048,11.4845719 47.8794773,11.4845719 C48.1612136,11.4845719 48.4409229,11.4926794 48.7186053,11.5068675 C45.9843453,7.58891001 42.2143499,4.44319346 37.8058876,2.4791475" id="Fill-30" fill="#C7C7C7"></path>
                <path d="M47.8798827,11.4847745 C43.9436833,11.4847745 40.3561071,12.9785845 37.6481964,15.4290815 C40.4615048,18.0984814 42.2613735,21.8259123 42.4113626,25.9668265 L42.4113626,25.9688534 L42.4113626,25.9911491 L42.4113626,25.9952028 C42.4113626,26.0012835 42.4113626,26.0073641 42.4133895,26.0134448 L42.4133895,26.0215523 L42.4133895,26.0357404 L42.4133895,26.0458748 L42.4133895,26.0580361 C42.4133895,26.0620899 42.4133895,26.0661436 42.4154164,26.0722243 L42.4154164,26.0823587 L42.4154164,26.0965468 L42.4154164,26.1046543 L42.4154164,26.1208694 L42.4154164,26.12695 C42.4154164,26.1330306 42.4154164,26.1391113 42.4174432,26.1451919 L42.4174432,26.1492457 L42.4174432,26.1695145 L42.4174432,26.1735682 C42.4174432,26.2141058 42.4194701,26.2526165 42.4194701,26.2931541 L53.4315049,26.2931541 L53.4315049,26.2546434 L53.4315049,26.2424821 L53.4315049,26.2161327 L53.4315049,26.2039714 L53.4315049,26.1735682 C53.4315049,26.1715413 53.4315049,26.1674876 53.429478,26.1654607 L53.429478,26.12695 L53.429478,26.1147887 L53.429478,26.0904662 L53.429478,26.0742511 L53.429478,26.0539823 C53.429478,26.0438479 53.4274511,26.0337136 53.4274511,26.0235792 L53.4274511,26.0033104 L53.4274511,25.9810147 L53.4274511,25.9688534 L53.4274511,25.942504 C53.4254243,25.9404771 53.4254243,25.9364233 53.4254243,25.9343965 C53.3078653,20.589516 51.5850179,15.6337963 48.7250914,11.527339 L48.731172,11.527339 C48.7271182,11.5192315 48.7230645,11.5151777 48.7190107,11.5070702 C48.4413283,11.4928821 48.1616189,11.4847745 47.8798827,11.4847745" id="Fill-28" fill="#D7D7D7"></path>
                <path d="M152.190992,9.62105911 C157.006857,9.62105911 160.910626,13.5248285 160.910626,18.3427204 C160.910626,23.1565585 157.006857,27.0603279 152.190992,27.0603279 C147.375127,27.0603279 143.471358,23.1565585 143.471358,18.3427204 C143.471358,13.5248285 147.375127,9.62105911 152.190992,9.62105911 Z M152.190992,24.2652614 C155.462375,24.2652614 158.11556,21.6100497 158.11556,18.3427204 C158.11556,15.0693104 155.462375,12.4181524 152.190992,12.4181524 C148.919609,12.4181524 146.268451,15.0693104 146.268451,18.3427204 C146.268451,21.6100497 148.919609,24.2652614 152.190992,24.2652614 Z" id="Fill-11" fill="#AFAFAF"></path>
                <polygon id="Fill-9" fill="#AFAFAF" points="83.9246866 13.1537069 90.5221784 13.1537069 90.5221784 23.5090328 83.916579 23.5090328 83.916579 26.3223412 99.8964948 26.3304487 99.8964948 23.5090328 93.3091373 23.5090328 93.3091373 13.1537069 99.9046023 13.1537069 99.9046023 10.3647211 83.9246866 10.3647211"></polygon>
            </g>
        </g>
    </g>
</svg>