<?xml version="1.0" encoding="UTF-8" standalone="no"?>
<svg width="86px" height="20px" viewBox="0 0 86 20" version="1.1" xmlns="http://www.w3.org/2000/svg" xmlns:xlink="http://www.w3.org/1999/xlink">
    <!-- Generator: Sketch 46.2 (44496) - http://www.bohemiancoding.com/sketch -->
    <title>Combined Shape</title>
    <desc>Created with Sketch.</desc>
    <defs></defs>
    <g id="Latest" stroke="none" stroke-width="1" fill="none" fill-rule="evenodd">
        <g id="OS-Landing-Page---Desktop" transform="translate(-469.000000, -30.000000)" fill="#FFFFFF">
            <path d="M486.761843,30.3153249 L503.37098,30.3153249 L503.37098,33.848392 L497.094958,33.848392 L497.094958,49.6843267 L493.006061,49.6843267 L493.006061,33.848392 L486.761843,33.848392 L486.761843,30.3153249 Z M518.399879,41.6090018 L505.60829,41.6090018 L506.813893,38.0756443 L518.399879,38.0756443 L518.399879,41.6090018 Z M518.399879,33.8485372 L508.261084,33.8485372 L509.466687,30.3154701 L518.399879,30.3154701 L518.399879,33.8485372 Z M518.399879,49.6842686 L502.858336,49.6842686 L504.06394,46.1509111 L518.399879,46.1509111 L518.399879,49.6842686 Z M473.184015,44.1636298 C473.722918,45.8672958 475.149101,46.655971 477.051165,46.655971 C479.016543,46.655971 480.315805,45.7726316 480.315805,44.2269328 C480.315805,43.0598911 479.618469,42.4286025 477.938736,42.0505263 L474.452057,41.2615608 C471.662714,40.630853 469.507392,39.1478766 469.507392,35.9621053 C469.507392,32.4603993 472.423364,30 476.512261,30 C480.949826,30 483.51713,32.3340835 484.151443,35.6150998 L480.125569,35.6150998 C479.682075,34.3217423 478.572465,33.3120871 476.544064,33.3120871 C474.705607,33.3120871 473.469368,34.1954265 473.469368,35.5834483 C473.469368,36.6874773 474.198215,37.3498367 475.656493,37.6971325 L479.206195,38.5171688 C482.376009,39.2425408 484.309584,41.0408711 484.309584,43.9745917 C484.309584,47.7283485 481.203084,50 477.082968,50 C472.740521,50 469.665824,47.8546642 469,44.1636298 L473.184015,44.1636298 Z M543.874431,44.1636298 C544.413334,45.8672958 545.839517,46.655971 547.741581,46.655971 C549.706959,46.655971 551.006221,45.7726316 551.006221,44.2269328 C551.006221,43.0598911 550.308885,42.4286025 548.629152,42.0505263 L545.142473,41.2615608 C542.35313,40.630853 540.197808,39.1478766 540.197808,35.9621053 C540.197808,32.4603993 543.11378,30 547.202677,30 C551.640242,30 554.207546,32.3340835 554.841568,35.6150998 L550.816277,35.6150998 C550.3722,34.3217423 549.262881,33.3120871 547.23448,33.3120871 C545.396023,33.3120871 544.159784,34.1954265 544.159784,35.5834483 C544.159784,36.6874773 544.888631,37.3498367 546.346909,37.6971325 L549.896611,38.5171688 C553.066425,39.2425408 555,41.0408711 555,43.9745917 C555,47.7283485 551.8935,50 547.773092,50 C543.430937,50 540.35624,47.8546642 539.690416,44.1636298 L543.874431,44.1636298 Z M526.557132,42.9651978 L526.557132,49.6843267 L522.53155,49.6843267 L522.53155,30.3153249 L530.455794,30.3153249 C534.576202,30.3153249 537.302522,32.5236733 537.302522,36.6560871 C537.302522,40.7568494 534.576202,42.9651978 530.455794,42.9651978 L526.557132,42.9651978 Z M530.202535,33.7540181 L526.557132,33.7540181 L526.557132,39.5265045 L530.202535,39.5265045 C532.294543,39.5265045 533.308743,38.3278113 533.308743,36.6560871 C533.308743,34.9210599 532.294543,33.7540181 530.202535,33.7540181 Z" id="Combined-Shape"></path>
        </g>
    </g>
</svg>